<svg width="20" height="20" viewBox="0 0 20 20" fill="none" xmlns="http://www.w3.org/2000/svg">
<g clip-path="url(#clip0_1_44)">
<path d="M9.78332 14.7917H14.7167C14.6417 14.8583 14.5667 14.9167 14.4917 14.9833L10.9333 17.65C9.75832 18.525 7.84166 18.525 6.65832 17.65L3.09166 14.9833C2.30832 14.4 1.66666 13.1083 1.66666 12.1333V5.95832C1.66666 4.94165 2.44166 3.81665 3.39166 3.45832L7.54166 1.89999C8.22499 1.64165 9.35832 1.64165 10.0417 1.89999L14.1833 3.45832C14.975 3.75832 15.65 4.59165 15.8583 5.44165H9.77499C9.59166 5.44165 9.42499 5.44999 9.26666 5.44999C7.72499 5.54165 7.32499 6.09999 7.32499 7.85832V12.3833C7.33332 14.3 7.82499 14.7917 9.78332 14.7917Z" stroke="#3A38FF" stroke-width="1.66667" stroke-linecap="round" stroke-linejoin="round"/>
<path d="M7.33331 9.34998H18.3333" stroke="#3A38FF" stroke-width="1.66667" stroke-miterlimit="10" stroke-linecap="round" stroke-linejoin="round"/>
<path d="M18.3333 7.84999V12.475C18.3166 14.325 17.8083 14.7833 15.8833 14.7833H9.78331C7.82498 14.7833 7.33331 14.2917 7.33331 12.3667V7.84165C7.33331 6.09165 7.73331 5.53332 9.27498 5.43332C9.43331 5.43332 9.59998 5.42499 9.78331 5.42499H15.8833C17.8416 5.43332 18.3333 5.91665 18.3333 7.84999Z" stroke="#3A38FF" stroke-width="1.66667" stroke-linecap="round" stroke-linejoin="round"/>
<path d="M9.43335 12.7167H10.5417M12.2917 12.7167H15.0167" stroke="#3A38FF" stroke-width="1.66667" stroke-miterlimit="10" stroke-linecap="round" stroke-linejoin="round"/>
</g>
<defs>
<clipPath id="clip0_1_44">
<rect width="20" height="20" fill="white"/>
</clipPath>
</defs>
</svg>
